<svg width="40" height="40" viewBox="0 0 40 40" fill="none" xmlns="http://www.w3.org/2000/svg">
<path d="M4.7619 0C2.14286 0 0 2.14218 0 4.76041V35.227C0 37.8453 2.14286 39.9874 4.7619 39.9874H20.7924C20.8947 40.0042 21.0007 40.0042 21.1031 39.9874H26.5067C26.609 40.0042 26.715 40.0042 26.8173 39.9874H35.2381C37.8571 39.9874 40 37.8453 40 35.227V4.76041C40 2.14218 37.8571 0 35.2381 0H4.7619ZM4.7619 1.90416H35.2381C36.8266 1.90416 38.0952 3.17237 38.0952 4.76041V35.227C38.0952 36.8151 36.8266 38.0833 35.2381 38.0833H27.619V24.7541H31.2574L32.5911 18.0896H27.619V16.1854C27.619 15.6554 27.6693 15.6127 27.8478 15.4974C28.0264 15.3821 28.577 15.2333 29.5238 15.2333H32.381V9.87227L31.8378 9.6138C31.8378 9.6138 29.6503 8.56874 26.6667 8.56874C24.5238 8.56874 22.7641 9.42227 21.6369 10.8299C20.5097 12.2376 20 14.1232 20 16.1854V18.0896H17.1429V24.7541H20V38.0833H4.7619C3.17336 38.0833 1.90476 36.8151 1.90476 35.227V4.76041C1.90476 3.17237 3.17336 1.90416 4.7619 1.90416ZM26.6667 10.4729C28.6458 10.4729 29.8921 10.9099 30.4762 11.1405V13.3291H29.5238C28.4282 13.3291 27.5502 13.4203 26.8099 13.9C26.0696 14.3798 25.7143 15.291 25.7143 16.1854V19.9937H30.266L29.6949 22.85H25.7143V38.0833H21.9048V22.85H19.0476V19.9937H21.9048V16.1854C21.9048 14.4393 22.3475 12.9926 23.125 12.02C23.9025 11.0475 25 10.4729 26.6667 10.4729Z" fill="#D9D9D9"/>
</svg>
