<svg width="50" height="50" viewBox="0 0 50 50" fill="none" xmlns="http://www.w3.org/2000/svg">
<path d="M9 4C6.25 4 4 6.25 4 9V41C4 43.75 6.25 46 9 46H41C43.75 46 46 43.75 46 41V9C46 6.25 43.75 4 41 4H9ZM9 6H41C42.6719 6 44 7.32812 44 9V41C44 42.6719 42.6719 44 41 44H9C7.32812 44 6 42.6719 6 41V9C6 7.32812 7.32812 6 9 6ZM26.043 10C25.4922 10 25.0449 10.4473 25.043 10.998C25.043 10.998 25.0312 15.873 25.0215 20.7598C25.0156 23.2031 25.0098 25.6484 25.0059 27.4902C25.002 29.332 25 30.4961 25 30.5938C25 32.4082 23.3516 33.8926 21.4727 33.8926C19.6094 33.8926 18.1211 32.4023 18.1211 30.5391C18.1211 28.6758 19.6094 27.1875 21.4727 27.1875C21.5352 27.1875 21.6621 27.209 21.8809 27.2344C22.1641 27.2676 22.4492 27.1797 22.6641 26.9883C22.8789 26.7988 23 26.5273 23 26.2402V22.0391C23 21.5117 22.5898 21.0742 22.0625 21.041C21.9062 21.0312 21.7109 21.0117 21.4727 21.0117C16.2227 21.0117 11.9453 25.2891 11.9453 30.5391C11.9453 35.7891 16.2227 40.0664 21.4727 40.0664C26.7227 40.0664 31 35.7891 31 30.5391V21.4902C32.4551 22.6543 34.2676 23.3906 36.2695 23.3906C36.543 23.3906 36.8027 23.375 37.0508 23.3516C37.5645 23.3047 37.959 22.873 37.959 22.3555V17.6855C37.959 17.1602 37.5547 16.7246 37.0312 16.6875C33.8867 16.4609 31.3789 14.0117 31.0527 10.8965C31 10.3867 30.5703 10 30.0586 10H26.043ZM27.041 12H29.3223C30.0488 15.2988 32.627 17.8145 35.959 18.4453V21.3105C33.8203 21.2012 31.9414 20.1348 30.8359 18.4531C30.5938 18.084 30.1367 17.918 29.7129 18.0449C29.2891 18.1719 29 18.5625 29 19.0039V30.5391C29 34.707 25.6406 38.0664 21.4727 38.0664C17.3047 38.0664 13.9453 34.707 13.9453 30.5391C13.9453 26.5391 17.0664 23.3633 21 23.1074V25.2832C18.2871 25.5352 16.1211 27.7617 16.1211 30.5391C16.1211 33.4824 18.5293 35.8926 21.4727 35.8926C24.4023 35.8926 27 33.5859 27 30.5938C27 30.6426 27.002 29.3359 27.0059 27.4941C27.0098 25.6523 27.0156 23.207 27.0215 20.7637C27.0312 16.377 27.0391 12.8496 27.041 12Z" fill="#D9D9D9"/>
</svg>
